<svg xmlns="http://www.w3.org/2000/svg" viewBox="0 0 282.8 352.6">
	<path d="M40.6 233.1l11.2-38.4H59l7.4 28.8 8.2-28.8h7.1l11.2 38.4h-7l-7.6-30.3-6.9 30.3h-9.6l-6.6-30.3-8.1 30.3zM132.2 229.8c-2.8 1.9-8.4 3.3-13.6 3.3-7.5 0-15.7-2.9-15.7-11.2 0-4.6 3.8-8.4 9.2-9.2v-.4c-4.9-1.1-7.4-4.1-7.4-7.7 0-4.9 4.9-9.9 14.9-9.9 4.9 0 8.6 1 11.3 2.8l-1.5 4.4c-1.5-1-5.5-2.3-9.3-2.3-5.2 0-8.6 2.1-8.6 5.5 0 3.6 4.5 5.2 10.4 5.2h4.5v4.8h-4.7c-6.7 0-11.7 1.8-11.7 6.2 0 4.3 4.6 6.7 10.1 6.7 4.1 0 8.7-1.5 10.9-2.8l1.2 4.6zM143.8 233.1h6.3v-29.9c0-.8.8-2.7 3-2.7 2.6 0 5.5 1.9 5.5 1.9v-6.3s-1.7-1.7-4.9-1.7c-1.1 0-5.6-.5-8 2.3-1.8 2.2-2 4-2 5.8.1 2 .1 30.6.1 30.6zM195.5 209.6h-10.1v-14.9h4.4l-10.9-7v21.9h-10.2v11.2l4.5-6.2h5.7v23l-4.4 2.5 10.9 2.5v-28h10.1zM242.3 233.4l-14.4-39h-7.1l-15 39h7.9l4.6-13 .1-.2h3v13.2h5.9v-13.2h2.8l4.4 13.2h7.8zm-22-18.8l4.1-11.5 3.8 11.5h-7.9zM30.2 19.6h203.9v8.5l18.4-19.6H48.6V0z"/>
	<path d="M141.4 79.7c35.1 0 68.1 13.7 92.9 38.5 24.8 24.8 38.5 57.8 38.5 92.9 0 35.1-13.7 68.1-38.5 92.9-24.8 24.8-57.8 38.5-92.9 38.5S73.3 328.8 48.5 304C23.7 279.2 10 246.2 10 211.1c0-35.1 13.7-68.1 38.5-92.9 24.8-24.8 57.8-38.5 92.9-38.5m0-10C63.3 69.7 0 133 0 211.1s63.3 141.4 141.4 141.4 141.4-63.3 141.4-141.4S219.5 69.7 141.4 69.7z"/>
</svg>
